<?xml version="1.0" standalone="yes"?>
<svg xmlns="http://www.w3.org/2000/svg" width="1624" height="969" viewBox="0 0 1624 969" role="img" data-source="feishu-story-raster-trace">
<path style="stroke:#000000; fill:none;" d="M1225 90C1232.25 81.8983 1242.48 73.8156 1253 70.3333C1256.96 69.0229 1262.96 66.4212 1265 71C1309.81 55.5625 1362.05 86.1779 1393 117L1386 112M1266 68L1268 68M1257 75L1264 72M1229 83L1229 85L1227 83L1230 81M1226 85L1223 88L1227 83M1226 85L1228 87M48 88C95.3364 87.2047 142.589 87 190 87C201.748 87 213.284 88 225 88C227.987 88 235.235 86.6688 237.278 89.3334C244.285 98.4749 238 124.146 238 135L238 264M1223 89L1220 90L1222 87M1224 87L1226 89M1220 90C1198.75 109.098 1191.6 138.158 1185.14 165C1183.24 172.901 1178.23 186.321 1181 194C1190.95 182.155 1195.1 158.028 1198 143M54 112C91.2551 119.044 128.631 118 167 118C178.259 118 198.569 122.301 208 116L164 115L78 113M1350 112C1337 138.447 1309.23 157.679 1282 166.694C1273.47 169.518 1260.04 176.057 1253 168C1274.34 161.005 1291.34 144.659 1307 129M58 113L56 115M208 116C216.964 116.654 213 146.328 213 154L213 280M793 128C809.745 119.417 824.808 114.173 844 116.083C926.837 124.329 931.322 256.523 847 264.917C827.195 266.888 806.032 262.867 790 250.583C783.687 245.746 776.585 231.964 770 230C770.336 220.006 763.652 208.293 762.222 198C759.321 177.11 769.999 137.043 792 129L787 134M1372 118C1372.4 123.484 1377.29 127.165 1379.72 132C1385.06 142.623 1390.97 158.251 1391 170C1391.01 174.143 1390.69 179.459 1396 178L1392 178M195 119L137 148.778L113.722 162.111L113 184L112 240L113 446M1392 119C1397.25 125.503 1412.59 141.261 1408 150L1399 130M203 120C209.087 136.653 205.035 160.599 204.028 178C202.006 212.938 204 248.993 204 284M1372 122C1359.49 138.541 1351.55 154.356 1329 159M1347 136L1330 152C1338.21 155.208 1353.59 140.569 1359 135C1362.06 131.855 1364.44 125.708 1369 127M836 126L836 130M1383 127C1395.01 134.654 1402.85 155.366 1404.78 169C1405.41 173.504 1403.52 177.753 1405 182C1413.65 170.375 1408.26 162.189 1408 150M805 134L808 139M870 134L867 138M787 135L784 136M1395 145L1394 176M776 147L774 150M1409 149L1411 155M1331 154L1330 152M1301 159C1307.79 165.891 1321.45 157.045 1328 153M1326 154L1329 155M1399 154L1395 177M1253 155L1242 166L1254 178C1262.16 173.473 1266.8 179.422 1274 178.806C1279.17 178.363 1283.14 172.218 1281 168M891 156L887 159M783 157L787 160M1325 157L1327 156M1300 161L1302 163M1388 163L1384.33 197L1382 210M1221 291L1233.61 248L1237 222C1221.15 209.149 1209.29 166.137 1242 166M1249 169L1253 168M1257 168L1255 170M1285 168L1283 170M806 170L836 190.111L881 178M1279 176L1280 173M1276 177L1277 174M1270 175L1274 175M1228 184C1234.91 173.006 1246.3 177.224 1247 190L1236 193M1317 178L1352 181L1365 179L1366 177L1366 177M1270 178C1269.04 181.533 1270.47 182.958 1274 182L1274 180M1254 179L1267 179M1258 180L1264 179M1273 179L1269 182M1265 180L1271 184M1392 180L1394 181M1259 182L1264 183M1393 182L1389 187M1403 182L1405 183M1265 184L1267 183M1266 184L1269 185M1378 185L1384 191M1403 185L1394 195M1264 187L1267 186M892 191L901 191M773 192L779 191M1248 191C1244.12 197.163 1242.7 198.782 1245 206L1235 200M1181 194L1180 201L1180 196M1345 194L1346 194M1321 196L1344 198M1370 196C1361.85 206.099 1360.78 214.752 1364.69 227C1366.36 232.211 1370.66 239.47 1369.58 245C1366.26 262.11 1341.88 297.183 1324 299.583C1316.18 300.633 1306.78 295.519 1300 292.222C1292.33 288.492 1283.28 293.902 1281 281L1282 285M1336 199L1335 202M1177 202L1180 202M1176 203L1176 207L1179 203M1367 207C1379.43 205.538 1374.25 233.473 1370 240M1175 208L1172 216C1165.98 214.354 1159.43 229.28 1156.17 234C1144.02 251.547 1126.82 282.342 1144 302M1376 210L1379 208M1170 213L1173 211M1172 216C1164.24 248.412 1137.27 271.547 1161 304C1148.13 312.379 1130.44 312.731 1117 321.444C1102.46 330.871 1098.33 343.264 1091 357L1092 353M1223 217C1223 235.538 1210.67 262.697 1217 280C1224.81 263.976 1231 244.938 1231 227M885 222L891 224M1238 222L1246 223M789 223L784 226M1248 225L1251 241M771 227L773 229M771 232L772 233M1369 240L1356 247M1191 241C1186.43 264.662 1183.08 281.309 1186.81 305C1188.23 314.068 1200.21 324.201 1208 317L1208 324C1225.78 338.418 1248.58 354.121 1272 356.778C1289.95 358.814 1300.41 344.505 1295 329L1280 322L1279 330M1347 243L1351 242M867 243L870 247M808 244L806 247M836 249L836 256M1180 255C1172.82 272.252 1175.02 291.963 1185 307L1180 301M1263 262L1281 281M1323 265L1347 265M1163 263C1155.96 281.399 1162.69 312.371 1187 309M292 270L285 270C292.132 267.423 300.935 274.463 305 280M221 296L219 295L248 276.25L285 270M312 278L311 281C329.742 263.517 347.714 284.188 357 298L355 294M256 283C271.569 281.103 289.488 271.519 302.917 286.028C307.374 290.843 309.537 298.393 313 304C319.359 300.072 323.482 296.462 331 300L321 304M1216 281L1216 300L1215 292M311 282L309 283M1283 284L1290 291M1226 285L1225 318C1218.9 313.099 1216.4 308.026 1216 300M1286 285L1290 288L1289 289L1288 288L1290 286L1290 288M1346 286L1343 317L1346 309M1292 287L1293 289M238 305C243.915 297.046 259.433 285.315 270 289C251.561 302.946 237.863 310.24 226 331M270 289L285 288M1182 288L1184 296M311 300L327 289M1195 289L1206 317L1200 309M301 291L305 293M220 294L224 292M1291 294C1287.82 300.532 1277.58 314.085 1286 319L1293 302M218 297L211 306L213 302M359 297L365 305L363 307L362 304M1297 297C1296.9 303.101 1294.54 319 1287 319M357 299L359 301M1217 299L1217 305M213 301L215 300M1341 300L1342 308M298 310L284 308C289.518 299.778 299.513 300.677 306 307M332 302L338 305L326 306M302 303L299 304M1309 303L1305 323L1307 321M301 304L303 306M1161 304L1166 304M209 309L206 309L210 305M1170 305L1172 307M1219 305L1218 309M365 306C376.312 314.366 389.08 319.037 391.778 335C392.863 341.422 388.786 352.661 390.833 357.944C392.073 361.144 398.421 363.884 400.972 366.222C405.921 370.756 409.562 379.202 409.389 386C409.173 394.473 403.084 398.122 400.972 405.083C399.842 408.809 404.029 413.269 404.306 417C404.816 423.897 399.605 426.121 396.556 431.083C394.514 434.407 390.967 446.598 384.139 443.194C381.533 441.896 387 423.003 387 419C387 408.711 385.879 391.68 382.361 382C379.323 373.64 371.847 362.994 371.528 354C371.426 351.149 373.852 349.193 375 352L374 353L373 354L372 355M211 307L209 309M339 308L336 308M284 308L283 312L284 310M339 308L355 324L357 322L352 317M371 309L368 310M1220 309L1222 314M1326 309L1320 332M205 311L205 317L204 313M282 311L280 315L289 314M1300 311C1298.63 315.797 1294.96 330.595 1305 323M208 312L207 313M1335 313C1335 325.864 1331.47 335.494 1320 342M270 314C263.658 324.482 259.291 346.229 263 358C273.186 346.345 266.288 323.407 283 318M205 318L204 316M278 316L278 318M1347 316L1343 318L1330 341L1327 339M1221 317L1223 317M1222 318L1229 322L1225 319M1227 318L1227 319M1281 318L1281 322M201 319L204 320M1204 319L1205 320M1206 319L1210 322M372 320C385.422 327.106 390.887 343.965 383 357C376.952 341.182 374.624 330.727 358 325L358 322M1212 320L1211 323M1291 320L1295 322M1348 320L1352 331M278 321L277 322M1214 321C1218.1 323.484 1220.14 324.114 1224 321M1345 321L1347 323M200 322L185.417 353L184 375L183 369M1205 322L1208 324M1326 322L1321 337L1306 332L1302 326M1230 323L1233 327M359 324L361 324M1304 324L1304 328M357 325L358 325M1128 327C1150.29 335.802 1161 369.949 1161 392M360 328C365.748 332.854 378.605 339.872 375 349L370 343L370 350M1293 328L1294 329M1307 329L1308 330M1319 329L1317 332M363 331L367 333L367 333M1293 331L1294 332M366 332L366 334M1306 333L1307 343M365 335L369 343M1317 339L1322 337M1322 337L1324 339M1212 338C1230.23 352.477 1254.12 366 1278 366M328 349C338.436 348.43 342.675 336.671 354 342M1332 342C1370.01 357.01 1371.49 404.929 1378.19 439C1384.2 469.519 1384.32 501.153 1390.39 532C1391.77 539 1396 545.093 1397.58 552C1398.92 557.847 1395.38 564.137 1397.33 570C1398.59 573.756 1402.24 576.124 1403.53 580C1411.91 605.324 1419.75 631.771 1429.39 657C1434.88 671.384 1442.55 686.57 1444.58 702C1445.26 707.128 1440.19 710.401 1440.58 715C1442.38 735.985 1470.74 749.589 1472.92 770C1473.76 777.96 1473.46 799.6 1468.69 806C1462.85 813.848 1448.11 813.773 1448.17 826C1448.2 833.027 1461.65 837.11 1465.89 841.417C1466.71 842.251 1468.17 859.918 1467.19 861.889C1463.36 869.669 1441.24 869.57 1438 863C1426.32 872.001 1441.28 896.506 1428 902.389C1416.35 907.552 1421.36 876.436 1420.92 872C1420.6 868.85 1421.73 861.727 1420.28 859.25C1417.52 854.565 1411.55 854.235 1410.25 848C1407.98 837.123 1418.83 834.268 1419.19 826C1419.29 823.825 1418.15 811.095 1417.25 809.389C1415.41 805.906 1408.69 803.47 1409.03 799C1409.44 793.552 1414.12 790.102 1419 790L1403.39 757L1399 724L1395 727L1395 728L1397 727M250 348L250 386C258.142 380.746 261.843 368.334 262 359M321 348L325 353M376 348C377.941 351.638 376.757 355.228 378.25 359C382.532 369.817 393.237 381.84 384 393M373 350L375 353M375 353L377 355M306 355L306 362M393 356L391 358M1299 356L1285 364M392 357L394 359M383 358L380 362M1091 358L1081.44 383L1078 404L1079 394M389 359L389 361M302 361L267 383M393 361L394 365L396 363M378 362L376 365M250 364L250 369M339 371L357 364M328 365L328 377M361 365L363 365M380 365L381 367M238 368C237.256 382.752 228.583 400.016 216 408M381 368L382 369M249 370L239 398L249 387M383 372L384 375M184 375L185 379L186 375M384 375L382 381M396 378C401.649 385.595 401.842 393.997 397 402M185 379L189 390M188 379L187 382M342 381L358 383M1084 381L1083 386M194 384L183.306 407L179 422L179 415M331 385C336.382 392.907 349.722 399.682 344 410M282 397L303 387M1080 386L1082 391M186 389L177 401M392 390L387 409M1079 390L1079 394M1179 524L1194 526L1203 481L1197 480L1239 450.972L1252.75 443.833L1260.42 454L1283.22 488.778L1313 498L1308 499L1298.36 537.75L1282.31 547.083L1267.92 562.5L1251 567C1245.44 555.286 1236.62 560.404 1226 557.306C1208.06 552.074 1189.35 551.18 1171 547.611C1162.23 545.906 1156.23 541 1147 541C1150.71 505.643 1165.01 469.717 1172.81 435C1175.12 424.682 1176.33 399.971 1183.64 392.333C1185.81 390.063 1191.3 392.137 1194 392.611C1204.1 394.388 1214.11 396.581 1224 399.306C1258.09 408.697 1292.74 417.336 1327 426.139C1334.29 428.012 1358.54 431.283 1362.25 438.111C1365.13 443.405 1360.69 452.929 1359 458C1354.86 470.424 1346.96 489.28 1351 501L1347 499C1341.64 508.588 1340.18 520.569 1337.31 531C1336.17 535.117 1332.09 540.461 1334.17 544.889C1337.34 551.674 1350.94 544.263 1350.94 556C1350.94 561.402 1345.45 562.557 1344.56 567.028C1342.93 575.218 1342.57 586.228 1341.92 595C1339.69 625.063 1344.25 654.268 1345.97 684C1346.43 691.894 1348.1 704.51 1346.72 712C1345.52 718.563 1340.67 725.776 1340.67 733C1340.67 737.511 1343.69 743.046 1343.97 748C1345.24 769.844 1345.08 793.292 1342.92 815C1339.73 846.986 1337.1 878.996 1333.92 911C1332.5 925.221 1329 939.69 1329 954M247 393L244 394M1340 395L1347 431M237 396L236 400L237 398M246 403L246 397L246 412L247 406M306 398L293 412M1078 398L1080 400M235 399L221 405M243 402L243 408M277 404L275 405M200 405C193.49 415.686 190.49 429.3 196.056 441C197.923 444.927 203.103 447.67 203.639 452C205.035 463.272 209.327 483.095 226 477C220.233 470.584 216.473 467.39 216 458M1078 405C1075 412.857 1069.46 433.794 1074 441L1090 406M240 407L243 411M353 407C360.414 413.013 367.021 420.387 369 430M180 412L182 409M236 413L239 409L241 414L242 412M405 409L405 415M1160 409L1150 465L1166 436M393 415L393 411L397 428M225 412C218.73 419.424 212.363 430.051 216 440M179 413L179 415M225 436L224 444L224.333 431L236 413M245 413L246 417C249.857 415.883 249.926 418.496 250 422M248 413L248 415M321 413L322 418M233 417L234 414M333 414L329 416M240 415L244 417M393 415C392.98 419.719 392.584 432.873 386 431M246 417L246 420M179 422C179 431.555 181.849 438.144 188 445L184 443M232 431L232 422C243.818 422.646 242.066 433.175 250 439L245 441M225 426L227 424M316 424L314 454M200 428C200 437 202.257 446.728 209 453M179 432L181 436M388 434L395 432M330 445C337.081 438.038 345.923 433 356 433M228 438C234.082 445.5 241.71 453.107 252 453.917C255.705 454.208 259.724 450.055 262.972 451.611C273.398 456.606 278.971 469.007 291 473L287 473M1071 440L1072 444L1074 442M225 443L225 448L224 444M382 443C375.518 450.994 370.109 462.293 362 468.583C348.892 478.751 337.847 476.114 323 475.083C311.719 474.3 302.719 475.807 291 473M343 446L349 444M1072 444C1063.6 456.903 1062.32 476.1 1059.94 491C1055.97 515.9 1049 539.594 1049 565C1049 579.284 1047.54 593.905 1059.08 604.611C1073.26 617.763 1088.63 620.459 1107 623.222C1136.7 627.69 1165.89 629 1196 629C1201.95 629 1208.16 628.004 1214 628.167C1222.69 628.408 1230.42 633.99 1239 628.111C1244.03 624.666 1245.15 618.985 1248 614L1266 615.333L1289 620.611L1302.58 622.333L1300 635L1290 665L1283 674.861L1249 665.389L1146 637C1147.74 646.859 1162.3 655.501 1170 661M189 445L201 449M190 446L187 447M191 447L189 448M227 448L229 454L225 449M1203 481L1238 457.333L1250.92 450.028L1260 462L1284 499C1292.54 492.792 1297.39 496.991 1307 498M202 451L203 451M1379 452L1381 457M207 453L206 465M1265 457C1275.31 460.94 1281.46 463.924 1286 453L1294 456C1291.44 464.958 1296.03 462.148 1299.92 468.111C1304.22 474.719 1310.05 486.242 1311 494M120 458C123.507 449.616 134.258 462.841 141 463.778C149.472 464.954 163.239 462.313 170.778 466.722C176.052 469.807 177.951 477.801 180.25 483C185.621 495.148 189.491 510.102 197 521L210.083 502.083L236 485L226 477M229 454L233 457M373 455C378.918 458.133 388.089 454.981 395 456.389C421.374 461.761 457.181 470.241 475.917 491C492.455 509.324 492.11 531.984 502 553C510.313 549.996 518.918 556.329 527 557.694C533.594 558.809 540.007 551.914 546.972 558.111C553.283 563.726 549.067 575.737 549 583C548.774 607.454 546.504 632.676 544.083 657C542.894 668.952 543.273 681.045 542.083 693C541.69 696.951 543.445 703.407 541.278 706.889C537.666 712.691 520.121 706.029 514 707.917C506.307 710.289 500.726 716.914 492 718.611C479.332 721.074 470.601 714.002 459 713.25C449.018 712.603 437.408 716 427 716M244 457C244 469.045 249.991 478.945 263 479L255 460M238 458L238 459M375 458C379.539 462.291 384.138 465.547 390 462L394 467L393 464M1120 459L1135 514L1149 466M259 460L270 481L263 479M265 460L275 476M375 460L378 473M1283 461L1291 464M167 590L183 577.389L211 574L178.25 499L165.972 474.889L112 468C117.449 462.04 122.32 463 130 463M111 467L113 466M239 465L240 469M388 466L390 466M394 466C405.097 477.95 386.81 498.571 378.778 508C366.07 522.918 345.681 540.027 325 540.889C298.898 541.976 279 513.228 279 490L283 485M110 468L116.75 488L131 522L144 516C144.178 524.458 149.675 521.235 154 517C156.93 528.432 135.163 531.295 142 542L131 552M113 470L111 472M207 470L208 472M1238 477C1234.59 482.381 1236.8 485.87 1243 486C1243.52 480.893 1232.51 466.897 1246 472C1241.02 485.768 1262.26 473.777 1246 472M277 471L289 489M242 472C244.267 479.933 247.728 486.115 256 489C259.073 485.927 286.401 480.647 284 488M264 475L262 477M281 477L283 477M127 482L122 485C118.375 474.969 128.949 479.708 127 481M230 477L232 477M288 477L309 511M268 480L266 482M130 481C136.546 494.43 125.293 498.749 122 485M248 483L252 481M289 481L287 483M1252 481C1250.08 485.973 1249.71 487.48 1244 487M286 482L284 484M236 485L244 483M292 484L290 486M281 485L280 488M482 486L681 485L728 485L742.889 488.028L741.667 498.444L726 500L685 500L490 501M253 486L255 486M264 488L257 490M1285 489L1286 490M269 491L269 492M1350 491L1351 498M1285 492L1288 494M1400 531C1413.03 476.591 1469.64 498.159 1509 495.972C1534.63 494.548 1567.19 488.513 1592 498L1584 501L1587 502L1588 502M1475 495L1488 498L1475 502M1429 502L1461 495M1502 496L1488 498M1512 496L1534 499.083L1584 501M1280 497L1272.81 531L1268.89 542.25L1241 537L1249 505L1263.58 509.5L1258 539M1347 497L1347 499M1466 497C1437.88 522.046 1424.9 560.403 1423 598M1214.33 498.722C1224.18 492.036 1232.75 508.423 1224.5 515.583C1216.02 522.942 1204.26 505.56 1214.33 498.722M1592 498L1616 503M427 574C427.375 551.661 439.93 507.11 465 501M720 501L718 767M731 501L729 638L728.083 714L728 758L726.667 773.667L714 773.889L677 776M1221 501C1219.43 505.531 1221.44 507.423 1226 508M1350 502L1345 547M392 506C378.902 536.561 351.473 561.71 328 584M1212 506L1219 507L1218 513M1617 506C1600.88 524.355 1594.85 557.635 1590.19 581C1589.21 585.956 1584.57 601.47 1587.72 605.667C1590.61 609.512 1609.24 605.08 1614 605M512 545C512 535.187 508.701 518.057 513.083 509.111C515.725 503.719 526.761 507.165 529 511L545.611 510.722L547.111 524L555 555M497 509L512 509M1283 515C1283.98 507.245 1290.51 509.487 1296 512C1294.62 515.219 1294.53 523.324 1291.67 525.278C1283.66 530.739 1280.65 520.652 1283 515L1288 518L1290 512M529 511L529 547M548 514L561.889 513.417L566.222 530L575 573L620 571L615 553C625.877 559.033 642.12 556.715 654 556.028C659.209 555.726 665.373 556.227 669 552C655.258 546.284 628.742 546.284 615 552M144 516C147.884 513.128 151.9 511.666 154 517M1138 513C1138.93 521.557 1143.33 532.841 1132 537M125 516L125 527L131 522M1289 516L1293 518M1186 525C1186.37 519.875 1189.36 516.921 1194 520M1288 518L1287 525M152 520L154 522M197 521L198 524L200 521M277 522L290 547M198 524C201.025 536.414 221.209 562.818 212 574M1334 530C1330.19 533.134 1327.45 533.886 1324 530C1328.37 526.454 1331.58 522.587 1337 526M125 527C118.414 536.557 121.136 542.854 122.944 553C126.519 573.057 137.47 593.191 153 608M546 527L546 548M1195 527L1241 537M1299 538L1324 530M143 542C151.351 537.228 166.551 531.682 176 531.306C184.439 530.97 180.811 538.872 177 542L176 541L178 539L179 539L180 539M1303 532L1303 537M170 535L176 541M1089 548L1081 548C1087.56 538.789 1108.25 532.072 1119 536L1097 546M1136 535L1146 542M1119 536L1127 537M138 539L137 544M1307 548C1319.02 547.444 1322.74 546.337 1333 540M1331 542L1333 544M177 543L172 551L159 554L166 554M1088 565L1086 565L1123 543M1144 544L1121 561M1271 544L1281 547M193 553C189.54 551.88 186.267 555.403 183.111 554.056C176.968 551.433 189.612 540.072 193.194 549.028C194.583 552.5 189.193 557.677 186.917 559.778C178.171 567.849 163.612 574.56 153 580M1334 546L1325 547M172 551L182 548M166 550L170 552M191 549L191 551M1080 549L1082 550M234 551L242.917 595L248.333 642L261 675L262 670M669 552C673.502 559.709 664.875 569.221 659 573.806C647.142 583.059 630.685 578.62 620 570M502 553L503 560C508.136 557.712 525.394 559.811 527.667 566.028C532.216 578.476 524.799 602.677 524.028 616C523.66 622.36 525.468 636.13 520.583 640.861C517.272 644.069 513.35 639.232 511 637L511 639L512 640L513 641M154 557L153 560L159 554M157 555L160 556M1093 556L1088 562M546 558C537.701 567.876 539.349 591.428 539 604C538.036 638.696 532 673.205 532 708M152 559L142 566M529 559L528 564M189 560L195 561L185 576M503 560C503.099 565.911 503.114 577.578 505.333 582.889C506.966 586.797 513.296 583.545 513.861 589C514.237 592.627 510.529 594.667 509.889 598C507.851 608.609 515.063 632.331 521 641M224 561L239 596M184 562L191 568M419 562L425 592M557 566C557.614 569.177 558.007 576.388 560.5 578.583C564.019 581.684 572.646 577.44 574 574M767 828L774.972 689L777.972 642L780 617L781 617C783.041 622.584 780.245 628.478 781.556 633.889C782.453 637.594 788.409 635.512 789.639 639.111C792.736 648.17 788.047 667.318 787.083 677C784.569 702.256 784.596 727.753 782.083 753C779.833 775.603 783.426 800.848 778.889 823C777.709 828.763 753.222 832.884 749.75 827.667C748.302 825.49 750 818.728 750 816C750 803.649 751.886 791.312 752 779C752.469 728.376 758.049 677.512 760.972 627C761.822 612.313 762.752 597.582 764.778 583C765.464 578.062 764.443 571.934 769.083 568.5C774.527 564.472 786.963 566.211 791.889 570.472C793.884 572.198 793.616 575.627 796.111 576.667C800.264 578.397 807.526 577 812 577C854.918 577 898.37 578.673 941 582.917C943.161 583.132 948.834 584.299 950.667 583.194C952.878 581.861 951.99 577.161 953.5 575.028C957.573 569.273 969.159 571.684 974 575C968.656 582.803 969.834 595.784 968.917 605C966.426 630.021 963.407 654.982 960.917 680C953.824 751.255 948.979 823.044 941.917 894C940.445 908.781 927.643 907.736 921.556 919C916.568 928.229 921 951.358 921 962M1334 567L1344 566M1083 568L1085 567M1251 567L1248 614M785 568L784.75 587L782 604L783 593M1232 568L1231 601M1366 574L1379 570M665 572C681.387 572 705.161 566.958 717 579M975 575C982.632 581.354 978.262 591.304 978 600C977.261 624.543 973.516 649.562 971.083 674C961.627 769.001 953 863.242 953 959M784 583L793 577M187 578C188.244 584.579 188.431 592.275 183 597L176 584M555 584L718 583M782 583L782 591M1359 583L1383 589M1340 594C1337.37 589.877 1336.89 585.941 1342 584M429 630C413.598 629.676 429.07 611.985 435 608.389C455.838 595.751 479.063 585.419 504 585M952 585L944.917 656L932.917 782L928.778 827L927.667 846.889L943 855M1330 589L1337 587M168 590L171 588M225 588L231 596M429 588L430 610M1304 622L1323.97 615.75L1328.56 605.222L1340 594M555 596L718 595M141 597L138 609C133.089 606.621 133.056 611.041 136 614L138 609M183 597C181.799 603.35 179.865 610.578 180.222 617C180.527 622.477 184.975 625.914 181.889 631.917C173.043 649.122 151.08 649.755 139.417 635C134.327 628.561 134.21 620.513 132 613M505 631C507.417 635.532 498.735 628.294 497.167 626.833C480.75 611.549 493.262 603.798 509 598M4 693L80 695L104.25 694.5L103.222 671L119.611 630L126.417 608L139 599M234 599L241 606M782 604L781 616L782 605M244 605L243 607M482 605L488 609M1325 607L1327 606M1587 606L1542 615.389L1526 619L1530 618M175 612L180 607M182 613C190.269 616.378 188.241 624.204 190.333 631C193.503 641.296 200.762 647.214 202 659M458 614L463 615M136 615L134 617M487 615C487 624.59 479.475 660.714 466 641C456.208 650.751 449.145 651.241 438 647L440 664L442 662M1614 808C1582.92 811.264 1552.96 822.102 1522 814.361C1516.4 812.962 1500.01 812.516 1496.72 807.75C1490.41 798.614 1496 774.795 1496 764C1496 728.121 1493.72 687.365 1499.61 652C1502.12 636.951 1507.86 619.991 1526 619M180 621L182 632M466 641C466.16 633.399 468.523 623.966 476 621M1527 621L1517 626M1527 624L1558 629M1115 625C1108.08 634.302 1113.23 643.06 1110.31 653C1106.86 664.703 1104.74 674.369 1102.61 686C1101.8 690.441 1098.65 696.393 1100.33 700.917C1103.21 708.659 1121.11 710.972 1128 713.444C1147.3 720.37 1167.89 725.189 1188 729.611C1195.85 731.338 1204.58 730.287 1212 733L1200 732M454 635L449 634C452.711 628.446 457.625 626.821 464 628M1126 627C1127.25 633.693 1139.15 634.87 1145 636M1543 811C1543.18 768.907 1544.75 725.839 1548.92 684C1550.17 671.389 1547.7 651.219 1557.25 641.222C1568.93 628.997 1601.15 629.996 1617 627M1242 628L1239 629M421 629C419.25 632.962 414.02 633.222 411.333 637C406.917 643.21 413.184 647.143 419 644.806C429.38 640.634 436.663 622.545 449 634L439 647M180 630L178 634M245 632L242 634L244 630M469 632L474 631M508 633L511 636M190 634L186 685M242 634C219.561 659.19 206.135 691.364 179 712L203 713M488 634C488 655.741 463.073 681.708 442 664M496 634L491 657M506 635L509 638M434 636L435 636M791 637L945 646M1435 638L1500 646M824 639L811.972 783L809 817L808.722 828.667L819 830.778L844 834L852.917 739L862 642M842 639L858 640M836 640L827.917 728L819 830M513 641L514 644M1344 641C1358.46 661.983 1369.7 691.285 1379.19 715C1383.07 724.671 1388.24 738.664 1401 734M873 642L859.917 782L856.611 817L855.722 833.889L880 838L891.083 725L899 644M522 643L526.917 671L515 707M911 644L896.917 789L893 827L892.722 838.667L926 844M423 645C425.417 651.25 430.559 649.572 436 649M427 650L437 682L443 685M434 655L439 663M182 673L188 656L190 667M438 656L436 658M309 659L347 682M1179 667L1203 680M1448 672L1495 680M264 673L277 689M261 675C260.763 682.058 261.694 694.752 268.306 699.278C275.942 704.505 292.183 700.206 301 701.083C335.725 704.54 372.073 705 407 705C418.325 705 436.355 702.761 447 705.25C451.218 706.236 457.135 710.849 456 715M265 675L266 676M266 677L267 678M267 679L268 680M439 679L440 680M291 680C300.299 688.283 313.82 696.083 326 699M270 681L271 684M438 683L446 703M1493 731C1491.71 718.696 1486.64 692.6 1497 683M271 685L273 685M262 693C261.834 700.906 255.582 700.572 249 699.917C232.562 698.281 215.23 701.069 199 698M106 696C106.913 700.435 108.793 704.171 111.194 708C128.313 735.289 156.043 719.909 179 712M263 700L266 700M519 700L521 707M1134 702L1195 719M1399 723C1402.84 708.724 1431.92 698.119 1444 707M191 704L212 705M214 704L214 705M1437 705L1440 712M1105 706L1101.33 722L1103.33 730L1095.25 757L1093 796L1098.94 834L1096.03 852L1093 956M1270 716L1320 706M186 708L216 708M452 708L419 712M543 709C576.985 709 611.14 710.013 645 711.972C657.724 712.709 675.503 709.708 686 718L573.083 847L538.083 885L517 904.972L479 906L378 900.083L197 890.972L45 884M116 715L103 717M174 715L193 717M1108 715L1104 726M466 717L432 720M1133 718C1131.62 731.167 1122.32 750.207 1127 763C1147.05 757.609 1164.41 748.293 1169 726M1235 736L1230 736L1268 735.917L1342 718M163 719L184 721M686 719C703.779 746.299 667.64 774.617 652.861 793C622.682 830.54 589.158 866.195 556.917 902C547.198 912.793 537.427 923.887 527 934C524.345 936.575 516.583 939.085 515.333 942.111C512.613 948.695 515 960.859 515 968M123 721L115 723M161 722L164 722M153 793C155.056 787.659 161.263 785.363 166 782.611C176.726 776.379 187.266 769.823 198 763.611C220.544 750.565 245.28 730.683 270 722.5C276.299 720.415 283.639 722.823 290 723C306.664 723.463 324.566 721.91 341 724.611C358.519 727.49 377.297 725.154 395 726.917C398.729 727.288 411.84 724.678 411.139 731C410.604 735.824 405.151 739.849 402 743C392.652 752.348 382.816 761.244 373 770.083C361.439 780.494 350.564 791.67 339 802.083C333.735 806.824 328.775 814.053 322 816.75C315.407 819.375 304.846 815.828 298 815.083C276.359 812.729 254.71 808.485 233 807.028C212.93 805.681 193.065 801.375 173 800.028C170.145 799.836 154.667 799.825 154.667 795.917C154.667 792.269 160.759 793.089 163 792.778C172.569 791.449 182.486 792.175 192 790.611C209.715 787.7 228.147 788.694 246 786.917C265.14 785.011 285.313 782.667 304 784.917C311.519 785.822 327.018 780.118 322 771L381 744.611L410 733M446 724L480 722M1396 725L1398 722M1100 725L1103 731M128 728L166 726M1099 729L1101 735M1174 731C1161.1 752.182 1149.94 761.228 1127 770M1344 731L1343 736M1461 732L1496 737M1212 733L1230 736M1098 734L1100 739M1211 734L1220 734M1219 735L1227 736M975 739L1082 738M1097 738L1099 744M1282 739L1266 772M1271 740L1259 784L1302 760M729 743L747 742M1096 743L1097 747M604 758L582.222 784L530.083 844L505.917 870.639L460 865.083L370 854.083L326 848L355 823.611L416 775L452 747.333L497 749.917L568 754.917L604 758M1095 748L1096 753M975 759L1075 757M689 760L717 759M1436 760L1435.81 769.667L1442.92 772.111L1451.58 782L1456 798M456 761L533 767.917L567 771M733 761L745 761M1125 763L1121 836M1299 764L1251 812L1273 802M297 782C299.355 770.836 312.795 771 322 771M1436 771L1441 797C1444.91 793.543 1445.8 789.814 1441 787M446 772L496 777M313 776L306 777L313 776M1353 775L1394 784M513 778L554 782M668 780C665.319 789.97 667.932 800.805 666.917 811C664.157 838.721 663.807 868.214 664 896C664.043 902.16 660.541 928.955 666.111 931.972C677.085 937.918 696.682 937.397 709 939.222C738.673 943.618 768.425 947.849 798 952.778C808.272 954.49 838.95 954.078 839 966M1454 780L1452 782M1259 784L1255 789L1255 787M1352 784L1393 792M1445 789L1452 785M463 797L459 790C467.03 786.964 469.414 804.35 475 809L468 810M1214 804L1254 788M444 796L425 800C429.27 794.542 438.873 785.217 444 794L459 790M659 790C644.639 842.586 649 902.316 649 957M1420 791L1426 807C1429.99 805.03 1427.46 801.094 1430.33 798.5C1435.62 793.725 1437.99 803.668 1438 807L1439 808L1447 807L1442 807M468 794L484 794L480 798M1252 794L1225 822M1411 796L1420 797M482 797C491.3 808.293 480.196 814.525 473.056 823C470.568 825.952 467.693 832.143 463.972 833.5C459.081 835.283 446.368 832.422 442 830L451 817C436.603 811.011 437.904 826.633 426.972 828.889C416.714 831.006 404.414 825 394 825M1441 797L1441 806M1454 797L1444 805M512 798L540 801M652 798L652 808M426 802L421 801L424 799M451 800C458.069 805.93 446.25 806.768 442 805L446 801M422 803L421 801M420 804L416 803L419 802M1424 802L1418 809M1443 802L1445 804M419 805L402 825M1481 806L1495 809M1426 807L1422 815C1428.9 816.421 1449.59 825.291 1444 810M1428 807C1431.81 811.368 1434.34 811.446 1439 808M471 808L471 810M506 808L532 811M1447 808L1450 816M475 809L481 811M1249 809L1247 817L1252 814M1265 809L1255 821M474 810L479 811M420 814C423.839 811.613 428.079 811.266 431 815L420 814L418 818L423 817M426 813L426 815M1477 815L1552 827C1551.77 831.539 1550.02 842.434 1546.67 845.667C1541.89 850.264 1525.55 848.457 1521.33 843.75C1517.75 839.746 1517.09 829.189 1517 824M1421 816L1423 826C1429.77 826 1441.54 827.99 1445 834M468 818C464.76 823.548 462.165 825.564 456 823C458.04 817.444 462.655 816.226 468 818M1553 826L1612 817M428 818L424 820M499 818L524 820M1246 818L1216 958M459 819L463 819M462 820L465 823M1445 820L1440 829M460 822L460 824M527 968L622.694 858.389L650 827M780 827L807 830M1420 827L1422 827M1447 828L1445 832M1537 828L1536 847M666 861L748 829M376 830L458 839.917L502 845M431 830L441 830M1450 830L1447 833M648 831L630 878M467 833L470 835M1428 833L1430 835L1424 836C1426.15 838.731 1431.68 841.807 1430 836M1442 833L1431 853C1438.07 854.401 1436.88 856.609 1435 863M1432 834L1432 837M845 835L854 835M367 838L439 846.917L495 853M881 839L891 840M1120 840L1120 865L1121 849M639 843L629 866M631 851L629 861M940 857C927.331 869.456 910.732 878.512 896 888.333C883.305 896.796 870.277 906.959 855 909.611C836.904 912.753 814.976 906.885 797 904.222C770.709 900.327 744.301 897.492 718 893.778C701.037 891.383 683.121 886.072 666 886M625 859L625 962M1427 861L1426 893M1438 861L1438 863M1120 865L1118 949M666 902C680.389 907.26 698.785 907.074 714 909.222C744.269 913.496 774.618 918.778 805 922.083C825.079 924.268 846.129 930.302 866 924C894.192 915.06 915.284 888.615 941 875M939 905C946.684 917.112 940 947.531 940 962M518 910L518 934M41 911L139 917.917L342 929.083L515 941M866 966L867.333 956.472L884 945.139L920 920M867 928L866 955M840 929L840 958M664 933L663 968M675 934L674 966M448 938L448 967M492 941L492 967M747 946L747 965M765 949L765 965M776 950L776 966"/>
</svg>
